<?xml version="1.0" encoding="UTF-8"?>
<svg id="Layer_2" data-name="Layer 2" xmlns="http://www.w3.org/2000/svg" viewBox="0 0 226.16 41.94">
  <defs>
    <style>
      .cls-1 {
        fill: #ff172e;
      }

      .cls-2 {
        fill: #1540d7;
      }

      .cls-3 {
        fill: none;
        stroke: #1540d7;
        stroke-miterlimit: 10;
        stroke-width: .5px;
      }
    </style>
  </defs>
  <g id="Layer_1-2" data-name="Layer 1">
    <g>
      <g>
        <path class="cls-3" d="m54.25,2.03h-18.66v7.93h-3.74v31.73h7.47v-15.86h11.19v15.86h7.47V9.96h-3.72V2.03Zm-14.93,15.86v-7.93h11.19v7.93h-11.19Z"/>
        <path class="cls-3" d="m51.51,40.69v-15.86h-13.19v15.86h-5.47V10.96h3.74V3.03h16.66v7.93h3.72v29.73h-5.46Zm-13.19-21.79h13.19v-9.93h-13.19v9.93Z"/>
        <polygon class="cls-3" points="20.66 17.89 9.47 17.89 9.47 2.02 2 2.02 2 41.68 9.47 41.68 9.47 25.82 20.66 25.82 20.66 41.68 28.13 41.68 28.13 2.02 20.66 2.02 20.66 17.89"/>
        <polygon class="cls-3" points="21.66 40.68 21.66 24.82 8.47 24.82 8.47 40.68 3 40.68 3 3.02 8.47 3.02 8.47 18.89 21.66 18.89 21.66 3.02 27.13 3.02 27.13 40.68 21.66 40.68"/>
        <polygon class="cls-3" points="87.81 33.74 69.18 33.74 69.18 2.02 61.71 2.02 61.71 41.68 69.18 41.68 69.18 41.67 87.81 41.67 87.81 33.74"/>
        <polygon class="cls-3" points="62.71 40.68 62.71 3.02 68.18 3.02 68.18 34.74 86.81 34.74 86.81 40.67 68.18 40.67 68.18 40.68 62.71 40.68"/>
      </g>
      <path class="cls-3" d="m166.21,9.95h-3.73V2.02h-22.39v7.93h-3.73v23.79h3.73v7.93h22.39v-7.93h3.73V9.95Zm-14.93,7.56h-3.73v8.3h-3.72v-15.86h7.46v7.56Zm0,8.67h3.73v-8.3h3.73v15.86h-7.46v-7.56Z"/>
      <path class="cls-3" d="m141.09,40.67v-7.93h-3.73V10.95h3.73V3.02h20.39v7.93h3.73v21.79h-3.73v7.93h-20.39Zm9.2-5.93h9.46v-17.86h-5.73v8.3h-3.73v9.56Zm-7.46-7.93h5.72v-8.3h3.73v-9.56h-9.46v17.86Z"/>
      <polygon class="cls-3" points="128.9 25.81 128.9 17.88 132.63 17.88 132.63 9.9 128.9 9.9 128.9 2.03 106.5 2.03 106.5 9.95 125.17 9.95 125.17 17.88 110.24 17.88 110.24 25.76 106.5 25.76 106.5 33.75 106.5 33.75 106.5 41.68 132.61 41.68 132.61 33.75 113.97 33.75 113.97 25.81 128.9 25.81"/>
      <polygon class="cls-3" points="107.5 40.68 107.5 26.76 111.24 26.76 111.24 18.88 126.16 18.88 126.16 8.95 107.5 8.95 107.5 3.03 127.9 3.03 127.9 10.9 131.63 10.9 131.63 16.88 127.9 16.88 127.9 24.81 112.97 24.81 112.97 34.75 131.61 34.75 131.61 40.68 107.5 40.68"/>
      <polygon class="cls-3" points="192.9 25.81 192.9 17.88 196.63 17.88 196.63 9.9 192.9 9.9 192.9 2.03 170.5 2.03 170.5 9.95 189.17 9.95 189.17 17.88 174.24 17.88 174.24 25.76 170.5 25.76 170.5 33.75 170.5 33.75 170.5 41.68 196.61 41.68 196.61 33.75 177.97 33.75 177.97 25.81 192.9 25.81"/>
      <polygon class="cls-3" points="171.5 40.68 171.5 26.76 175.24 26.76 175.24 18.88 190.16 18.88 190.16 8.95 171.5 8.95 171.5 3.03 191.9 3.03 191.9 10.9 195.63 10.9 195.63 16.88 191.9 16.88 191.9 24.81 176.97 24.81 176.97 34.75 195.61 34.75 195.61 40.68 171.5 40.68"/>
      <polygon class="cls-3" points="225.91 17.98 225.91 9.74 222.18 9.74 222.18 2 199.79 2 199.79 9.93 218.45 9.93 218.45 17.88 203.54 17.88 203.54 25.81 218.45 25.81 218.45 33.72 199.81 33.72 199.81 41.65 222.2 41.65 222.2 33.73 225.91 33.73 225.91 25.8 222.2 25.8 222.2 17.98 225.91 17.98"/>
      <polygon class="cls-3" points="200.81 40.65 200.81 34.72 219.45 34.72 219.45 24.81 204.54 24.81 204.54 18.88 219.45 18.88 219.45 8.93 200.79 8.93 200.79 3 221.18 3 221.18 10.74 224.91 10.74 224.91 16.98 221.2 16.98 221.2 26.8 224.91 26.8 224.91 32.73 221.2 32.73 221.2 40.65 200.81 40.65"/>
      <g>
        <path class="cls-2" d="m52.25.03h-18.66v7.93h-3.74v31.73h7.47v-15.86h11.19v15.86h7.47V7.96h-3.72V.03Zm-14.93,15.86v-7.93h11.19v7.93h-11.19Z"/>
        <polygon class="cls-2" points="18.66 15.89 7.47 15.89 7.47 .02 0 .02 0 39.68 7.47 39.68 7.47 23.82 18.66 23.82 18.66 39.68 26.13 39.68 26.13 .02 18.66 .02 18.66 15.89"/>
        <polygon class="cls-2" points="85.81 31.74 67.18 31.74 67.18 .02 59.71 .02 59.71 39.68 67.18 39.68 67.18 39.67 85.81 39.67 85.81 31.74"/>
      </g>
      <path class="cls-2" d="m164.21,7.95h-3.73V.02h-22.39v7.93h-3.73v23.79h3.73v7.93h22.39v-7.93h3.73V7.95Zm-14.93,7.56h-3.73v8.3h-3.72V7.95h7.46v7.56Zm0,8.67h3.73v-8.3h3.73v15.86h-7.46v-7.56Z"/>
      <polygon class="cls-2" points="126.9 23.81 126.9 15.88 130.63 15.88 130.63 7.9 126.9 7.9 126.9 .03 104.5 .03 104.5 7.95 123.17 7.95 123.17 15.88 108.24 15.88 108.24 23.76 104.5 23.76 104.5 31.75 104.5 31.75 104.5 39.68 130.61 39.68 130.61 31.75 111.97 31.75 111.97 23.81 126.9 23.81"/>
      <polygon class="cls-2" points="190.9 23.81 190.9 15.88 194.63 15.88 194.63 7.9 190.9 7.9 190.9 .03 168.5 .03 168.5 7.95 187.17 7.95 187.17 15.88 172.24 15.88 172.24 23.76 168.5 23.76 168.5 31.75 168.5 31.75 168.5 39.68 194.61 39.68 194.61 31.75 175.97 31.75 175.97 23.81 190.9 23.81"/>
      <polygon class="cls-2" points="223.91 15.98 223.91 7.74 220.18 7.74 220.18 0 197.79 0 197.79 7.93 216.45 7.93 216.45 15.88 201.54 15.88 201.54 23.81 216.45 23.81 216.45 31.72 197.81 31.72 197.81 39.65 220.2 39.65 220.2 31.73 223.91 31.73 223.91 23.8 220.2 23.8 220.2 15.98 223.91 15.98"/>
      <rect class="cls-1" x="144.95" y="16.11" width="8.67" height="7.46" transform="translate(169.13 -129.44) rotate(90)"/>
    </g>
  </g>
</svg>